<?xml version="1.0" encoding="UTF-8" standalone="no"?>
<svg
   height="24px"
   viewBox="0 -960 960 960"
   width="24px"
   fill="#ffffff"
   version="1.1"
   id="svg1"
   sodipodi:docname="icon.svg"
   inkscape:version="1.4.3 (fcd0343856, 2026-01-01)"
   xmlns:inkscape="http://www.inkscape.org/namespaces/inkscape"
   xmlns:sodipodi="http://sodipodi.sourceforge.net/DTD/sodipodi-0.dtd"
   xmlns="http://www.w3.org/2000/svg"
   xmlns:svg="http://www.w3.org/2000/svg">
  <defs
     id="defs1" />
  <sodipodi:namedview
     id="namedview1"
     pagecolor="#ffffff"
     bordercolor="#000000"
     borderopacity="0.25"
     inkscape:showpageshadow="2"
     inkscape:pageopacity="0.0"
     inkscape:pagecheckerboard="0"
     inkscape:deskcolor="#d1d1d1"
     inkscape:zoom="19.17925"
     inkscape:cx="21.507619"
     inkscape:cy="16.606489"
     inkscape:window-width="1862"
     inkscape:window-height="1131"
     inkscape:window-x="58"
     inkscape:window-y="32"
     inkscape:window-maximized="1"
     inkscape:current-layer="layer1" />
  <g
     inkscape:groupmode="layer"
     id="layer1"
     inkscape:label="Layer 1">
    <path
       style="fill:#4285f4;fill-opacity:1;stroke:#4285f4;stroke-opacity:1"
       d="m 232,-172 q -26,0 -43,-17 -17,-17 -17,-43 v -496 q 0,-26 17,-43 17,-17 43,-17 h 496 q 26,0 43,17 17,17 17,43 v 496 q 0,26 -17,43 -17,17 -43,17 z"
       id="path6" />
    <path
       style="display:none;fill:#000c99;fill-opacity:1;stroke:#000000;stroke-opacity:1"
       d="m 200,-760 v 560 z"
       id="path5" />
    <path
       style="fill:#ffffff;fill-opacity:1;stroke:#ffffff;stroke-opacity:1"
       d="m 232,-200 h 496 q 12,0 22,-10 10,-10 10,-22 v -496 q 0,-12 -10,-22 -10,-10 -22,-10 H 232 q -12,0 -22,10 -10,10 -10,22 v 496 q 0,12 10,22 10,10 22,10 z"
       id="path4" />
    <path
       style="fill:#db4437;fill-opacity:1;stroke:none;stroke-opacity:1"
       d="m 606,-306 h 44 v -108 h -44 z"
       id="path3" />
    <path
       style="fill:#0f9d58;fill-opacity:1;stroke:none;stroke-opacity:1"
       d="m 458,-306 h 44 v -348 h -44 z"
       id="path2" />
    <path
       style="fill:#f4b400;fill-opacity:1;stroke:none;stroke-opacity:1"
       d="m 310,-306 h 44 v -228 h -44 z"
       id="path1" />
  </g>
</svg>
